<svg width="91" height="16" viewBox="0 0 91 16" fill="none" xmlns="http://www.w3.org/2000/svg">
<g clip-path="url(#clip0_353_20433)">
<path
      d="M5.00594 4.40396C5.4495 3.9604 5.98812 3.61188 6.5901 3.3901C7.19208 3.13663 7.88911 3.04158 8.61782 3.04158C9.4099 3.04158 10.1386 3.2 10.804 3.48515C11.4693 3.7703 12.0713 4.21386 12.6416 4.81584L14.9228 2.69307C14.1624 1.83762 13.2436 1.17228 12.1663 0.69703C11.0891 0.221782 9.85346 0 8.49109 0C7.25544 0 6.11485 0.190099 5.10099 0.570297C4.08713 0.950495 3.16832 1.52079 2.40792 2.24951C1.64752 2.97822 1.04554 3.80198 0.633663 4.78416C0.221782 5.76634 0 6.81188 0 7.98416C0 9.15644 0.221782 10.202 0.633663 11.1842C1.04554 12.1663 1.64752 12.9901 2.37624 13.7188C3.13663 14.4475 4.02376 14.9861 5.03762 15.398C6.05148 15.7782 7.19208 15.9683 8.39604 15.9683C9.50495 15.9683 10.6139 15.8099 11.6911 15.4614C12.8 15.1446 13.7822 14.6376 14.6376 14.004V7.73069H11.4059V12.2614C11.1842 12.3881 10.9307 12.4832 10.6772 12.5782C10.0119 12.8 9.31485 12.9267 8.61782 12.9267C7.88911 12.9267 7.22376 12.8 6.5901 12.5465C5.98812 12.2931 5.4495 11.9446 5.00594 11.501C4.56238 11.0574 4.21386 10.5505 3.9604 9.91683C3.70693 9.31485 3.61188 8.64951 3.61188 7.95248C3.61188 7.22376 3.73861 6.55842 3.9604 5.95644C4.21386 5.35446 4.56238 4.84753 5.00594 4.40396Z"
      fill="#EFEFEF"
    />
<path
      d="M25.505 4.30891C24.4911 3.7703 23.3505 3.51683 22.0515 3.51683C20.7842 3.51683 19.6436 3.7703 18.6614 4.30891C17.6792 4.84753 16.8872 5.57624 16.3169 6.52673C15.7466 7.47723 15.4614 8.55446 15.4614 9.75842C15.4614 10.9624 15.7466 12.0396 16.3169 12.9584C16.8872 13.9089 17.6792 14.6376 18.6614 15.1762C19.6436 15.7149 20.7842 16 22.0515 16C23.3505 16 24.4911 15.7149 25.505 15.1762C26.5189 14.6376 27.3109 13.9089 27.8812 12.9584C28.4515 12.0396 28.7367 10.9624 28.7367 9.75842C28.7367 8.55446 28.4515 7.47723 27.8812 6.52673C27.3109 5.57624 26.5189 4.81584 25.505 4.30891ZM24.7446 11.5327C24.4594 12.0396 24.1109 12.4198 23.6357 12.7049C23.1921 12.9584 22.6535 13.0851 22.0515 13.0851C21.4812 13.0851 20.9743 12.9584 20.499 12.7049C20.0238 12.4515 19.6753 12.0713 19.3901 11.5327C19.105 11.0257 18.9783 10.4238 18.9783 9.72673C18.9783 9.0297 19.105 8.42772 19.3901 7.92079C19.6753 7.41386 20.0238 7.03366 20.499 6.7802C20.9743 6.52673 21.4812 6.4 22.0832 6.4C22.6535 6.4 23.1921 6.52673 23.6357 6.7802C24.0792 7.03366 24.4594 7.41386 24.7446 7.92079C25.0297 8.42772 25.1565 9.0297 25.1565 9.72673C25.1565 10.4238 25.0297 11.0257 24.7446 11.5327Z"
      fill="#EFEFEF"
    />
<path
      d="M39.4772 4.75247C38.4633 3.89702 37.0376 3.45346 35.1683 3.45346C34.2178 3.45346 33.2673 3.58019 32.3485 3.83366C31.4297 4.08712 30.6376 4.43564 29.9723 4.91088L31.2079 7.35049C31.6515 7.00197 32.1901 6.71683 32.8237 6.52673C33.4574 6.33663 34.0911 6.20989 34.7247 6.20989C35.6752 6.20989 36.3723 6.43168 36.8158 6.84356C37.2594 7.25544 37.5128 7.85742 37.5128 8.58613V8.61782H34.7564C33.5208 8.61782 32.5069 8.77623 31.7465 9.06138C30.9861 9.34653 30.4158 9.79009 30.0673 10.3287C29.7188 10.8673 29.5287 11.501 29.5287 12.198C29.5287 12.895 29.7188 13.497 30.0673 14.0673C30.4475 14.6376 30.9544 15.0495 31.6198 15.398C32.2851 15.7148 33.1089 15.8733 34.0277 15.8733C35.1049 15.8733 35.9604 15.6515 36.6257 15.2396C37.0693 14.9544 37.4495 14.6059 37.7029 14.1624V15.9049H40.998V8.8396C40.998 7.00197 40.4911 5.6396 39.4772 4.75247ZM36.499 13.1485C36.0237 13.4337 35.4851 13.5604 34.8831 13.5604C34.2812 13.5604 33.8059 13.4337 33.4574 13.1802C33.1089 12.9267 32.9188 12.5465 32.9188 12.103C32.9188 11.6911 33.0772 11.3743 33.394 11.0891C33.7109 10.804 34.2812 10.6772 35.1049 10.6772H37.5128V11.9129C37.3227 12.4515 36.9742 12.8634 36.499 13.1485Z"
      fill="#EFEFEF"
    />
<path d="M45.3386 0H41.8218V15.9683H45.3386V0Z" fill="#EFEFEF" />
<path
      d="M58.2337 7.82575C58.1069 7.76238 57.9485 7.7307 57.8218 7.66733C58.4238 7.3505 58.9307 6.90693 59.2792 6.36832C59.6911 5.76634 59.8812 5.03763 59.8812 4.18218C59.8812 2.94654 59.3742 1.93268 58.3604 1.17228C57.3465 0.411885 55.8574 0.0316868 53.8614 0.0316868H46.099V15.9366H54.3366C56.4277 15.9366 58.0119 15.5564 59.0891 14.796C60.1663 14.0356 60.7049 12.9584 60.7049 11.596C60.7049 10.6772 60.4832 9.88515 60.0396 9.25149C59.596 8.64951 58.994 8.14258 58.2337 7.82575ZM53.4495 2.81981C54.3366 2.81981 55.0337 2.97822 55.5089 3.26337C55.9841 3.5802 56.2376 4.02377 56.2376 4.65743C56.2376 5.29109 55.9841 5.76634 55.5089 6.08317C55.0337 6.4 54.3366 6.55842 53.4495 6.55842H49.8059V2.81981H53.4495ZM56.2693 12.705C55.7624 13.0218 55.0653 13.1802 54.1148 13.1802H49.8059V9.25149H54.1148C55.0653 9.25149 55.7624 9.4099 56.2693 9.72674C56.7762 10.0436 57.0297 10.5505 57.0297 11.2158C56.998 11.8812 56.7445 12.3881 56.2693 12.705Z"
      fill="#EFEFEF"
    />
<path
      d="M70.4317 9.53664C70.4317 10.2654 70.305 10.8673 70.0515 11.3743C69.7981 11.8495 69.4495 12.2297 69.0377 12.4832C68.6258 12.7366 68.1189 12.8634 67.5802 12.8634C66.7882 12.8634 66.1862 12.6099 65.7426 12.1347C65.299 11.6594 65.0773 10.899 65.0773 9.85347V3.42179H61.4971V10.3921C61.4971 11.6277 61.7188 12.6733 62.1624 13.497C62.606 14.3208 63.208 14.9228 64.0317 15.3347C64.8238 15.7465 65.7426 15.9366 66.7882 15.9366C67.7387 15.9366 68.5941 15.7149 69.3862 15.2713C69.8614 15.0178 70.2733 14.6693 70.5901 14.2891V15.9683H73.9802V3.42179H70.4317V9.53664Z"
      fill="#EFEFEF"
    />
<path
      d="M83.992 9.40989C83.5484 9.15643 83.0732 8.96633 82.5663 8.8396C82.0593 8.71286 81.5524 8.58613 81.0138 8.52277C80.4752 8.4594 79.9999 8.36435 79.588 8.30098C79.1445 8.23762 78.796 8.11088 78.5425 7.95247C78.2574 7.79405 78.1306 7.57227 78.1306 7.25544C78.1306 6.93861 78.3207 6.65346 78.6692 6.43168C79.0178 6.20989 79.6197 6.11484 80.4118 6.11484C80.9504 6.11484 81.5207 6.17821 82.1227 6.30494C82.7247 6.43168 83.295 6.68514 83.8653 7.00197L85.0692 4.499C84.4989 4.18217 83.7702 3.89702 82.9148 3.73861C82.0593 3.54851 81.2356 3.45346 80.3801 3.45346C79.2078 3.45346 78.2257 3.61187 77.4019 3.96039C76.5781 4.27722 75.9445 4.75247 75.5009 5.35445C75.0574 5.95643 74.8356 6.62178 74.8356 7.38217C74.8356 8.0792 74.9623 8.6495 75.2158 9.06138C75.4692 9.50494 75.8178 9.82178 76.2613 10.0752C76.7049 10.3287 77.1801 10.5188 77.6871 10.6455C78.194 10.7723 78.7326 10.899 79.2395 10.9624C79.7782 11.0257 80.2534 11.1208 80.6653 11.1842C81.0772 11.2475 81.4257 11.3743 81.7108 11.501C81.9643 11.6594 82.091 11.8495 82.091 12.1346C82.091 12.4832 81.9326 12.7366 81.5841 12.9584C81.2356 13.1485 80.6653 13.2436 79.8732 13.2436C79.1445 13.2436 78.3841 13.1485 77.6237 12.9267C76.8633 12.7049 76.1979 12.4515 75.6277 12.103L74.4871 14.6059C75.0574 14.9861 75.8178 15.303 76.7682 15.5247C77.7187 15.7782 78.7009 15.9049 79.7465 15.9049C80.9504 15.9049 81.996 15.7465 82.8514 15.398C83.7069 15.0812 84.3405 14.6059 84.7841 14.0356C85.2277 13.4653 85.4494 12.8 85.4494 12.0713C85.4494 11.3743 85.3227 10.8356 85.0692 10.3921C84.7841 10.0119 84.4356 9.66336 83.992 9.40989Z"
      fill="#EFEFEF"
    />
<path
      d="M89.5683 12.5149C89.1881 12.1347 88.7129 11.9446 88.1426 11.9446C87.604 11.9446 87.1287 12.1347 86.7485 12.5149C86.3683 12.8951 86.1782 13.3703 86.1782 13.9723C86.1782 14.5426 86.3683 15.0178 86.7485 15.398C87.1287 15.7782 87.604 15.9683 88.1426 15.9683C88.7129 15.9683 89.1881 15.7782 89.5683 15.398C89.9485 15.0178 90.1386 14.5426 90.1386 13.9723C90.1703 13.3703 89.9485 12.8634 89.5683 12.5149Z"
      fill="#6DFFE7"
    />
</g>
<defs>
<clipPath id="clip0_353_20433">
<rect width="90.4" height="16" fill="white" />
</clipPath>
</defs>
</svg>
